# xmcd
# 
# Track frame offsets:
#     150
#     18193
#     32873
#     43210
#     57985
#     74120
#     105558
#     118435
#     142580
#     157125
#     178833
#     193810
#     221488
#     233938
#     252915
# 
# Disc length: 3577
# 
# Revision: 4
# Processed by: cddbd v1.5.2PL0 Copyright (c) Steve Scherf et al.
# Submitted via: fre:ac v1.0.27
# 
DISCID=e60df70f
DTITLE=Lightnin Hopkins and Sonny Terry - Blues Hoot
DYEAR=1961
DGENRE=Jazz
TTITLE0=Introduction To Big Car Blues
TTITLE1=Big Car Blues
TTITLE2=Coffee House Blues
TTITLE3=Stool Pigeon Blues
TTITLE4=Ball Of Twine
TTITLE5=Blues For Gamblers
TTITLE6=Right On That Shore
TTITLE7=Early Morning Blues
TTITLE8=Walk On
TTITLE9=Blues For The Lowlands
TTITLE10=Down By The Riverside
TTITLE11=Blowin' The Fuses
TTITLE12=Po' Boy
TTITLE13=I'm A Stranger Here (Live at The Troubadour)
TTITLE14=Trouble In Mind (Live at The Troubadour)
EXTD=
EXTT0=
EXTT1=
EXTT2=
EXTT3=
EXTT4=
EXTT5=
EXTT6=
EXTT7=
EXTT8=
EXTT9=
EXTT10=
EXTT11=
EXTT12=
EXTT13=
EXTT14=
PLAYORDER=
